<?xml version="1.0"?>
<svg xmlns="http://www.w3.org/2000/svg" viewBox="0 0 64 64" width="512" height="512"><path d="m4 44h8v18h-8z" fill="#4ba678"/><path d="m40 36h8v26h-8z" fill="#f73445" transform="matrix(-1 0 0 -1 88 98)"/><path d="m28 41h8v21h-8z" fill="#f59536" transform="matrix(-1 0 0 -1 64 103)"/><path d="m16 29h8v33h-8z" fill="#fed966" transform="matrix(-1 0 0 -1 40 91)"/><path d="m52 49h8v13h-8z" fill="#92b1f9"/><path d="m62 25-5-4v3h-4.46484l-7.70316-11.55469a1.03785 1.03785 0 0 0 -1.66406 0l-10.97605 16.46387-11.27289-26.30273a.98581.98581 0 0 0 -.93365-.60645.99842.99842 0 0 0 -.91553.63379l-12.75048 32.36621h-4.31934v2h5a.99911.99911 0 0 0 .93018-.63379l12.10888-30.73633 11.042 25.76367a.99943.99943 0 0 0 1.751.16114l11.16794-16.75196 7.168 10.752a.99963.99963 0 0 0 .832.44527h5v3z" fill="#f73445"/></svg>
